# Blender 5.2.1 LTS
# split from karuizawa1.obj
mtllib karuizawa1.mtl
o Cube.003
v -12.396233 -6.169507 93.485054
v -12.396233 -2.075103 93.485054
v -86.637939 -6.169507 -30.124012
v -86.637939 -2.075103 -30.124012
v 66.709442 -6.169507 45.972843
v 66.709442 -2.075103 45.972843
v -7.532272 -6.169507 -77.636223
v -7.532272 -2.075103 -77.636223
vn -0.8573 -0.0000 0.5149
vn -0.5149 -0.0000 -0.8573
vn 0.8573 -0.0000 -0.5149
vn 0.5149 -0.0000 0.8573
vn -0.0000 -1.0000 -0.0000
vn -0.0000 1.0000 -0.0000
vt 0.375000 0.000000
vt 0.625000 0.000000
vt 0.625000 0.250000
vt 0.375000 0.250000
vt 0.625000 0.500000
vt 0.375000 0.500000
vt 0.625000 0.750000
vt 0.375000 0.750000
vt 0.625000 1.000000
vt 0.375000 1.000000
vt 0.125000 0.500000
vt 0.125000 0.750000
vt 0.875000 0.500000
vt 0.875000 0.750000
s 0
usemtl Placeholder
f 1/1/1 2/2/1 4/3/1 3/4/1
f 3/4/2 4/3/2 8/5/2 7/6/2
f 7/6/3 8/5/3 6/7/3 5/8/3
f 5/8/4 6/7/4 2/9/4 1/10/4
f 3/11/5 7/6/5 5/8/5 1/12/5
f 8/5/6 4/13/6 2/14/6 6/7/6
