# Blender 5.2.1 LTS
# www.blender.org
mtllib karuizawa1.mtl
o Cube
v -10.020807 -2.047202 -21.938145
v -10.020807 2.047202 -21.938145
v -18.215845 -2.047202 -29.693813
v -18.215845 2.047202 -29.693813
v -5.057440 -2.047202 -27.182693
v -5.057440 2.047202 -27.182693
v -13.252478 -2.047202 -34.938362
v -13.252478 2.047202 -34.938362
vn -0.6874 -0.0000 0.7263
vn -0.7263 -0.0000 -0.6874
vn 0.6874 -0.0000 -0.7263
vn 0.7263 -0.0000 0.6874
vn -0.0000 -1.0000 -0.0000
vn -0.0000 1.0000 -0.0000
vt 0.375000 0.000000
vt 0.625000 0.000000
vt 0.625000 0.250000
vt 0.375000 0.250000
vt 0.625000 0.500000
vt 0.375000 0.500000
vt 0.625000 0.750000
vt 0.375000 0.750000
vt 0.625000 1.000000
vt 0.375000 1.000000
vt 0.125000 0.500000
vt 0.125000 0.750000
vt 0.875000 0.500000
vt 0.875000 0.750000
s 0
usemtl Placeholder
f 1/1/1 2/2/1 4/3/1 3/4/1
f 3/4/2 4/3/2 8/5/2 7/6/2
f 7/6/3 8/5/3 6/7/3 5/8/3
f 5/8/4 6/7/4 2/9/4 1/10/4
f 3/11/5 7/6/5 5/8/5 1/12/5
f 8/5/6 4/13/6 2/14/6 6/7/6
o Cube.001
v -26.238762 -2.047202 -8.971687
v -26.238762 2.047202 -8.971687
v -34.433800 -2.047202 -16.727354
v -34.433800 2.047202 -16.727354
v -21.275394 -2.047202 -14.216236
v -21.275394 2.047202 -14.216236
v -29.470432 -2.047202 -21.971903
v -29.470432 2.047202 -21.971903
vn -0.6874 -0.0000 0.7263
vn -0.7263 -0.0000 -0.6874
vn 0.6874 -0.0000 -0.7263
vn 0.7263 -0.0000 0.6874
vn -0.0000 -1.0000 -0.0000
vn -0.0000 1.0000 -0.0000
vt 0.375000 0.000000
vt 0.625000 0.000000
vt 0.625000 0.250000
vt 0.375000 0.250000
vt 0.625000 0.500000
vt 0.375000 0.500000
vt 0.625000 0.750000
vt 0.375000 0.750000
vt 0.625000 1.000000
vt 0.375000 1.000000
vt 0.125000 0.500000
vt 0.125000 0.750000
vt 0.875000 0.500000
vt 0.875000 0.750000
s 0
usemtl Placeholder
f 9/15/7 10/16/7 12/17/7 11/18/7
f 11/18/8 12/17/8 16/19/8 15/20/8
f 15/20/9 16/19/9 14/21/9 13/22/9
f 13/22/10 14/21/10 10/23/10 9/24/10
f 11/25/11 15/20/11 13/22/11 9/26/11
f 16/19/12 12/27/12 10/28/12 14/21/12
o Cube.002
v 17.497644 -2.047202 -18.453959
v 17.497644 2.047202 -18.453959
v 17.844891 -2.047202 -29.731743
v 17.844891 2.047202 -29.731743
v 24.715046 -2.047202 -18.231731
v 24.715046 2.047202 -18.231731
v 25.062292 -2.047202 -29.509516
v 25.062292 2.047202 -29.509516
vn -0.9995 -0.0000 -0.0308
vn 0.0308 -0.0000 -0.9995
vn 0.9995 -0.0000 0.0308
vn -0.0308 -0.0000 0.9995
vn -0.0000 -1.0000 -0.0000
vn -0.0000 1.0000 -0.0000
vt 0.375000 0.000000
vt 0.625000 0.000000
vt 0.625000 0.250000
vt 0.375000 0.250000
vt 0.625000 0.500000
vt 0.375000 0.500000
vt 0.625000 0.750000
vt 0.375000 0.750000
vt 0.625000 1.000000
vt 0.375000 1.000000
vt 0.125000 0.500000
vt 0.125000 0.750000
vt 0.875000 0.500000
vt 0.875000 0.750000
s 0
usemtl Placeholder
f 17/29/13 18/30/13 20/31/13 19/32/13
f 19/32/14 20/31/14 24/33/14 23/34/14
f 23/34/15 24/33/15 22/35/15 21/36/15
f 21/36/16 22/35/16 18/37/16 17/38/16
f 19/39/17 23/34/17 21/36/17 17/40/17
f 24/33/18 20/41/18 18/42/18 22/35/18
o Cube.003
v -12.396233 -6.169507 93.485054
v -12.396233 -2.075103 93.485054
v -86.637939 -6.169507 -30.124012
v -86.637939 -2.075103 -30.124012
v 66.709442 -6.169507 45.972843
v 66.709442 -2.075103 45.972843
v -7.532272 -6.169507 -77.636223
v -7.532272 -2.075103 -77.636223
vn -0.8573 -0.0000 0.5149
vn -0.5149 -0.0000 -0.8573
vn 0.8573 -0.0000 -0.5149
vn 0.5149 -0.0000 0.8573
vn -0.0000 -1.0000 -0.0000
vn -0.0000 1.0000 -0.0000
vt 0.375000 0.000000
vt 0.625000 0.000000
vt 0.625000 0.250000
vt 0.375000 0.250000
vt 0.625000 0.500000
vt 0.375000 0.500000
vt 0.625000 0.750000
vt 0.375000 0.750000
vt 0.625000 1.000000
vt 0.375000 1.000000
vt 0.125000 0.500000
vt 0.125000 0.750000
vt 0.875000 0.500000
vt 0.875000 0.750000
s 0
usemtl Placeholder
f 25/43/19 26/44/19 28/45/19 27/46/19
f 27/46/20 28/45/20 32/47/20 31/48/20
f 31/48/21 32/47/21 30/49/21 29/50/21
f 29/50/22 30/49/22 26/51/22 25/52/22
f 27/53/23 31/48/23 29/50/23 25/54/23
f 32/47/24 28/55/24 26/56/24 30/49/24
o Cube.004
v 13.482178 -2.047202 60.696098
v 13.482178 2.047202 60.696098
v 5.287140 -2.047202 52.940434
v 5.287140 2.047202 52.940434
v 18.445545 -2.047202 55.451550
v 18.445545 2.047202 55.451550
v 10.250507 -2.047202 47.695885
v 10.250507 2.047202 47.695885
vn -0.6874 -0.0000 0.7263
vn -0.7263 -0.0000 -0.6874
vn 0.6874 -0.0000 -0.7263
vn 0.7263 -0.0000 0.6874
vn -0.0000 -1.0000 -0.0000
vn -0.0000 1.0000 -0.0000
vt 0.375000 0.000000
vt 0.625000 0.000000
vt 0.625000 0.250000
vt 0.375000 0.250000
vt 0.625000 0.500000
vt 0.375000 0.500000
vt 0.625000 0.750000
vt 0.375000 0.750000
vt 0.625000 1.000000
vt 0.375000 1.000000
vt 0.125000 0.500000
vt 0.125000 0.750000
vt 0.875000 0.500000
vt 0.875000 0.750000
s 0
usemtl Placeholder
f 33/57/25 34/58/25 36/59/25 35/60/25
f 35/60/26 36/59/26 40/61/26 39/62/26
f 39/62/27 40/61/27 38/63/27 37/64/27
f 37/64/28 38/63/28 34/65/28 33/66/28
f 35/67/29 39/62/29 37/64/29 33/68/29
f 40/61/30 36/69/30 34/70/30 38/63/30
o Cube.005
v -2.735777 -2.047202 73.662560
v -2.735777 2.047202 73.662560
v -10.930815 -2.047202 65.906891
v -10.930815 2.047202 65.906891
v 2.227591 -2.047202 68.418015
v 2.227591 2.047202 68.418015
v -5.967447 -2.047202 60.662346
v -5.967447 2.047202 60.662346
vn -0.6874 -0.0000 0.7263
vn -0.7263 -0.0000 -0.6874
vn 0.6874 -0.0000 -0.7263
vn 0.7263 -0.0000 0.6874
vn -0.0000 -1.0000 -0.0000
vn -0.0000 1.0000 -0.0000
vt 0.375000 0.000000
vt 0.625000 0.000000
vt 0.625000 0.250000
vt 0.375000 0.250000
vt 0.625000 0.500000
vt 0.375000 0.500000
vt 0.625000 0.750000
vt 0.375000 0.750000
vt 0.625000 1.000000
vt 0.375000 1.000000
vt 0.125000 0.500000
vt 0.125000 0.750000
vt 0.875000 0.500000
vt 0.875000 0.750000
s 0
usemtl Placeholder
f 41/71/31 42/72/31 44/73/31 43/74/31
f 43/74/32 44/73/32 48/75/32 47/76/32
f 47/76/33 48/75/33 46/77/33 45/78/33
f 45/78/34 46/77/34 42/79/34 41/80/34
f 43/81/35 47/76/35 45/78/35 41/82/35
f 48/75/36 44/83/36 42/84/36 46/77/36
o Cube.006
v -28.617781 -2.047202 54.031746
v -28.617781 2.047202 54.031746
v -28.270535 -2.047202 42.753963
v -28.270535 2.047202 42.753963
v -21.400379 -2.047202 54.253971
v -21.400379 2.047202 54.253971
v -21.053133 -2.047202 42.976189
v -21.053133 2.047202 42.976189
vn -0.9995 -0.0000 -0.0308
vn 0.0308 -0.0000 -0.9995
vn 0.9995 -0.0000 0.0308
vn -0.0308 -0.0000 0.9995
vn -0.0000 -1.0000 -0.0000
vn -0.0000 1.0000 -0.0000
vt 0.375000 0.000000
vt 0.625000 0.000000
vt 0.625000 0.250000
vt 0.375000 0.250000
vt 0.625000 0.500000
vt 0.375000 0.500000
vt 0.625000 0.750000
vt 0.375000 0.750000
vt 0.625000 1.000000
vt 0.375000 1.000000
vt 0.125000 0.500000
vt 0.125000 0.750000
vt 0.875000 0.500000
vt 0.875000 0.750000
s 0
usemtl Placeholder
f 49/85/37 50/86/37 52/87/37 51/88/37
f 51/88/38 52/87/38 56/89/38 55/90/38
f 55/90/39 56/89/39 54/91/39 53/92/39
f 53/92/40 54/91/40 50/93/40 49/94/40
f 51/95/41 55/90/41 53/92/41 49/96/41
f 56/89/42 52/97/42 50/98/42 54/91/42
